# xmcd
#
# Track frame offsets:
#	150
#	16225
#	33654
#	49136
#	71412
#	88517
#	106211
#	118489
#	133320
#	145728
#	160685
#	174406
#	189218
#	206632
#	217808
#	237190
#	251360
#	264897
#	280646
#	293591
#
# Disc length: 4076 seconds
#
# Revision: 0
# Processed by: cddbd v1.5.2PL0 Copyright (c) Steve Scherf et al.
# Submitted via: audiograbber 1.83.01
#
DISCID=150fea14
DTITLE=Mikko Alatalo - Viimeinen Juna
DYEAR=2018
DGENRE=Country
TTITLE0=Enkeli Piikkikoroissa 
TTITLE1=Rankamettään (Pikkuserkunlaulu) 
TTITLE2=Älä Tee Lapsesta Soittajaa 
TTITLE3=Sunnuntailapset
TTITLE4=En Minä Pienenä Tiennyt 
TTITLE5=Totuuden Etsijät 
TTITLE6=Tällaiseksi Luoja Meidät Loi 
TTITLE7=Tyhjien Talojen Maa 
TTITLE8=Hyvää Syntymäpäivää 
TTITLE9=Viivy Vielä Hetki 
TTITLE10=Tytöt Tahtoo Pitää Hauskaa 
TTITLE11=Hän Hymyilee Kuin Lapsi 
TTITLE12=Per Vers, Runoilija 
TTITLE13=Suojelusenkeli
TTITLE14=Ihmisen Ikävä Toisen Luo 
TTITLE15=Jos Sä Menet Lappiin 
TTITLE16=Ajolähtö
TTITLE17=Kiiminkijoki 
TTITLE18=Hyasinttien Aika 
TTITLE19=Maalaispoika Oon 
EXTD=
EXTT0=
EXTT1=
EXTT2=
EXTT3=
EXTT4=
EXTT5=
EXTT6=
EXTT7=
EXTT8=
EXTT9=
EXTT10=
EXTT11=
EXTT12=
EXTT13=
EXTT14=
EXTT15=
EXTT16=
EXTT17=
EXTT18=
EXTT19=
PLAYORDER=
